<?xml version="1.0" encoding="UTF-8" standalone="no"?><!DOCTYPE svg PUBLIC "-//W3C//DTD SVG 1.1//EN" "http://www.w3.org/Graphics/SVG/1.1/DTD/svg11.dtd"><svg width="100%" height="100%" viewBox="0 0 46 46" version="1.1" xmlns="http://www.w3.org/2000/svg" xmlns:xlink="http://www.w3.org/1999/xlink" xml:space="preserve" xmlns:serif="http://www.serif.com/" style="fill-rule:evenodd;clip-rule:evenodd;stroke-linejoin:round;stroke-miterlimit:2;"><g><path d="M21.6,22.05l-0.15,1.275l0.975,0.525l0.975,-0.15l0.45,-0.75l-0.525,-1.05l-0.75,-0.3l-0.975,0.45Z" style="fill-rule:nonzero;"/><path d="M29.4,27.15l-0.975,0.375l-0.375,1.425l0.9,0.975l3.825,-0.45l-0.6,-3.075l-0.675,-0.75l-1.275,-0.15l-0.9,0.9l0.075,0.75Z" style="fill-rule:nonzero;"/><path d="M20.475,0l-1.125,0.825l-0.15,0.225l1.875,1.05l-0.3,0.45l-1.95,-0.675l0.3,1.875l1.5,1.2l1.65,-0.3l1.125,-1.2l0.15,-1.65l-1.2,-1.35l-1.875,-0.45Z" style="fill-rule:nonzero;"/><path d="M15.975,8.1l4.2,-0.9l1.5,0.45l-0.375,1.35l0.525,0.15l1.275,-3.075l-0.75,-0.225l-0.45,1.125l-1.575,-0.375l-2.775,-3.225l-1.575,4.725Z" style="fill-rule:nonzero;"/><path d="M30.675,12.825l0.9,-2.625l-0.45,-0.225l-0.075,-0.45l0.375,-0.525l0.525,0.225l0.225,0.3l-0.3,0.525l0.6,2.325l1.65,-1.65l-0.075,-0.3l-0.075,-0.375l0.3,-0.225l0.6,0.15l0.075,0.525l-0.225,0.375l-0.375,0.075l-0.375,2.1l2.175,-0.45l0.075,-0.375l0.225,-0.3l0.3,0l0.3,0.15l0.15,0.375l-0.15,0.3l-0.375,0.15l-0.375,-0.075l-1.8,2.1l-3.825,-2.1Z" style="fill-rule:nonzero;"/><path d="M15.225,21l-2.7,-0.825l-0.225,0.45l-0.375,0.075l-0.525,-0.3l0.15,-0.6l0.3,-0.225l0.6,0.3l2.25,-0.675l-1.725,-1.65l-0.225,0.15l-0.375,0.075l-0.3,-0.3l0.15,-0.6l0.6,-0.15l0.375,0.3l0,0.3l2.175,0.375l-0.525,-2.175l-0.375,0l-0.3,-0.3l-0.075,-0.3l0.15,-0.3l0.375,-0.15l0.3,0.15l0.225,0.375l-0.075,0.375l2.1,1.725l-1.95,3.9Z" style="fill-rule:nonzero;"/><path d="M29.625,4.275l1.05,2.55l0.6,0.3l0.3,-0.075l0.225,1.05l0.525,-0.225l0.9,-1.5l1.275,-0.525l0.3,-0.75l-0.9,-2.25l-0.825,-0.3l-2.925,1.125l-0.525,0.6Z" style="fill-rule:nonzero;"/><path d="M11.7,3l0.525,1.35l1.875,-0.6l1.875,2.25l-0.45,-2.925l2.1,-0.75l-0.75,-1.575l-5.175,2.25Z" style="fill-rule:nonzero;"/><path d="M44.85,17.625l0.15,2.1l-1.875,-1.35l-0.075,1.2l-1.8,-1.8l-0.15,1.2l-2.85,-2.625l2.4,0.45l0.075,-1.125l1.95,1.425l0.225,-0.9l1.95,1.425Z" style="fill-rule:nonzero;"/><g><path d="M25.425,15.825l0,-0.675l0.45,-0.45l0.9,0.15l0.15,0.9l-0.3,0.45l-0.9,0" style="fill-rule:nonzero;"/><path d="M27.825,12.45l-6.075,-1.95l-0.225,4.8l5.85,-1.875l0.45,-0.975Z" style="fill-rule:nonzero;"/><path d="M24.45,13.05c0.075,0 1.725,2.175 1.725,2.175l-0.525,0.225l-1.65,-1.875l0.45,-0.525Z" style="fill-rule:nonzero;"/></g><g><path d="M34.05,23.1l0.15,-0.6l-0.075,-0.6l-0.45,-0.6l4.575,-0.825l0.45,0.3l0.15,0.525l-0.225,0.45l-4.575,1.35Z" style="fill-rule:nonzero;"/><path d="M32.25,24.375l0.375,-0.675l0.075,-1.275l-0.375,-0.975l-0.6,-0.45l0.675,-0.075c0,0 0.525,0.3 0.6,0.3c0.075,0 0.6,0.675 0.6,0.675l0.075,0.825l-0.15,0.75l-0.525,0.675l-0.75,0.225Z" style="fill-rule:nonzero;"/><path d="M31.8,24.3l0.3,-0.6l0,-1.425l-0.45,-0.825l-0.525,-0.375l-0.6,0.525l-0.3,0.9l0.15,1.05l0.6,0.525l0.45,0.225l0.375,0Z" style="fill-rule:nonzero;"/></g><path d="M42.15,11.25l-1.125,-0.9l-0.9,-0.15l-0.75,0.075l-1.125,0.825l-0.525,1.425l0.3,1.425l1.2,0.9l1.35,0.15l1.275,-0.6l0.75,-1.65l-0.45,-1.5Zm-0.75,1.425l-1.875,0.975l0,-2.025l1.875,1.05Z" style="fill-rule:nonzero;"/><path d="M33.375,7.725l2.475,2.625l2.7,-1.875l0.075,0.225l0.225,0.3l0.3,0.225l0.6,0.15l0.525,-0.225l0.225,-0.45l-0.225,-0.6l-0.675,-0.525l-0.45,0l-0.6,0.3l-2.1,1.5l-1.8,-1.95l1.5,-0.975l0.225,0.45l0.45,0.375l0.6,0.15l0.6,-0.3l0.15,-0.6l-0.225,-0.525l-0.3,-0.225l-0.3,-0.15l-0.6,0l-0.15,0.075l-3.225,2.025Z" style="fill-rule:nonzero;"/><path d="M39.225,29.325l0.225,-0.525l0.375,-0.075l0.525,0.375l-1.125,2.85l-0.45,0.075l-0.525,-0.375l0.225,-0.45l-0.45,-0.075l-0.225,-0.6l0.525,-1.35l0.3,-0.15l0.525,-0.825l0.525,-0.525l0.6,-0.45l0.975,-0.225l0.975,0.225l0.675,0.45l0.525,0.6l0.225,1.05l0,0.975l-0.15,0.6l0.225,0.45l-0.6,1.275l-0.375,0.3l-0.45,-0.375l-0.15,0.525c-0.075,0 -0.6,-0.075 -0.6,-0.075l-0.375,-0.375l1.125,-2.925l0.525,-0.075l0.375,0.375l-0.3,0.675l0.225,0.075l0.15,-0.675l0,-0.75l-0.3,-0.3l-0.3,-0.675l-0.675,-0.45l-0.75,-0.225l-0.525,0.075l-0.6,0.375l-0.6,0.075l-0.225,0.225l-0.45,0.675l0.375,0.225Z" style="fill-rule:nonzero;"/><path d="M36.825,37.05l1.125,-1.275l1.725,0.3l-0.525,-1.5l1.125,-1.35l2.025,1.125l-3.75,4.35l-1.725,-1.65Z" style="fill-rule:nonzero;"/><g><path d="M40.575,21.45l-0.525,1.275l-1.05,1.875l-1.125,-1.575l2.25,-1.5l0.45,-0.075Z" style="fill-rule:nonzero;"/><path d="M37.125,23.475l-1.35,0.9l1.875,2.925l0.825,-1.875l-1.35,-1.95Z" style="fill-rule:nonzero;"/><path d="M35.025,24.975l2.1,3.15l-0.675,1.275l-0.6,-0.075l-0.525,-0.75l-1.725,-2.7l1.425,-0.9Z" style="fill-rule:nonzero;"/></g><path d="M29.025,11.625l-0.375,-0.45l-1.575,0.3l-0.225,-0.45l0.9,-1.65l-1.425,0.3l-0.375,-0.6l1.725,-2.025l-4.35,2.175l-0.375,-0.525l2.1,-2.625l-0.75,0.075l-0.675,-0.825l0.75,-0.6l0.75,0.525l1.5,-0.825l0.375,0.525l-2.025,2.475l3.9,-1.725l0.45,0.525l-2.1,2.25l1.575,-0.375l0.375,0.6l-1.2,1.8l1.05,-0.225l0.6,0.9l-0.6,0.45Z" style="fill-rule:nonzero;"/><path d="M7.5,17.475l0.3,-0.525l-0.825,-1.275l0.225,-0.45l1.95,0.225l-0.825,-1.2l0.375,-0.6l2.55,0.9l-3.6,-3.3l0.3,-0.525l3.225,0.975l-0.3,-0.6l0.45,-0.975l0.825,0.45l-0.15,0.9l1.275,1.125l-0.3,0.525l-3.075,-0.975l3.075,2.925l-0.3,0.675l-2.925,-1.05l0.975,1.275l-0.375,0.6l-2.175,-0.525l0.525,0.9l-0.525,0.9l-0.675,-0.375Z" style="fill-rule:nonzero;"/><g><path d="M15.3,10.275l-0.3,0.675l2.325,4.05l0.675,0.375l0.6,1.05l1.875,-0.825l-0.525,-1.2l0.075,-0.675l-1.8,-4.5l-0.825,0l-2.1,1.05Zm0.6,1.35l0,-0.15l0.075,-0.225l0.15,-0.075l0.15,-0.075l0.15,0.075l0.15,0.15l0,0.225l-0.15,0.225l-0.075,0.075l-0.15,0l-0.15,-0.075l-0.15,-0.15Zm0.675,0.975l0.075,-0.225l0.15,-0.15l0.225,-0.075l0.15,0.075l0.15,0.15l0,0.225l-0.075,0.15l-0.3,0.225l-0.15,0l-0.15,-0.15l-0.075,-0.225Zm1.35,1.275l-0.15,0.225l-0.075,0.075l-0.15,0l-0.15,-0.075l-0.075,-0.15l-0.075,-0.225l0.075,-0.225l0.15,-0.075l0.15,-0.075l0.15,0.075l0.15,0.15l0,0.3Zm1.35,-0.6l-0.075,0.15l-0.15,0.075l-0.15,0l-0.15,-0.15l-0.075,-0.225l0.075,-0.225l0.15,-0.15l0.225,-0.075l0.15,0.075l0.15,0.15l-0.15,0.375Zm-0.45,-1.425l0,0.225l-0.15,0.075l-0.225,0l-0.15,-0.075l-0.15,-0.075l-0.075,-0.225l0,-0.075l0.15,-0.15l0.15,-0.075l0.15,0l0.15,0.075l0.15,0.3Zm-0.675,-1.575l0.15,0.075l0.075,0.225l0,0.225l-0.225,0.15l-0.225,0l-0.15,-0.075l-0.075,-0.15l-0.075,-0.225l0,-0.075l0.15,-0.15l0.15,-0.075l0.225,0.075Z" style="fill-rule:nonzero;"/><path d="M19.575,9.9l-0.375,-0.45l-0.3,0.15l0.3,0.9l0.3,-0.15l0.075,-0.45Z" style="fill-rule:nonzero;"/><path d="M19.35,10.875l0.3,0.975l0.3,-0.075l0.15,-0.6l-0.45,-0.45l-0.3,0.15Z" style="fill-rule:nonzero;"/><path d="M19.875,12.225l0.375,0.9l0.3,-0.225l-0.075,-0.525l-0.3,-0.375l-0.3,0.225Z" style="fill-rule:nonzero;"/><path d="M16.35,13.875l-0.375,0.15l0.15,0.675l0.375,0.3l0.3,-0.225c0.075,0 -0.45,-0.825 -0.45,-0.9Z" style="fill-rule:nonzero;"/><path d="M16.2,13.5l-0.525,-0.75l-0.375,0.225l0,0.375l0.45,0.375l0.45,-0.225Z" style="fill-rule:nonzero;"/><path d="M15.375,12.3l-0.45,-0.825l-0.375,0.15l0.075,0.525l0.3,0.375l0.45,-0.225Z" style="fill-rule:nonzero;"/></g><path d="M28.725,14.925l1.35,-0.375l1.425,0.075l1.125,0.75l0.6,1.2l0.15,1.125l-0.525,1.5l-1.125,0.6l-1.125,0.3l-1.05,-0.525l-0.375,-0.75l-0.3,-1.5l0.9,-1.275l1.5,-0.15l0.75,0.75l0.15,1.05l-0.45,0.75l-0.9,0.375l-0.525,-0.525l-0.3,-0.825l0.525,-0.3l0.225,0.15l-0.15,0.3l0.15,0.375l0.225,0.075l0.375,-0.225l0.15,-0.3l-0.525,-0.975l-0.825,0.075l-0.6,0.675l0.3,1.575l1.2,0.45l1.35,-0.675l0.3,-1.125l-0.15,-1.275l-1.2,-0.9l-2.25,0.15l-0.675,1.05l-0.6,-0.15l0.225,-0.6l0.675,-0.9Z" style="fill-rule:nonzero;"/><path d="M35.325,15.225l1.35,0.675l1.05,1.2l0.375,1.2l-0.45,0.9l-0.6,0.45l-1.35,0.3l-0.75,-0.225l-0.675,-0.6l-0.075,-1.725l0.525,-1.2l0.6,-0.975Z" style="fill-rule:nonzero;"/><path d="M10.95,7.95l1.125,-0.9l1.425,-0.45l1.2,0.075l0.6,0.75l0.225,0.675l-0.3,1.275l-0.45,0.6l-0.75,0.45l-1.575,-0.6l-0.825,-0.9l-0.675,-0.975Z" style="fill-rule:nonzero;"/><g><path d="M45.3,20.775l-0.375,-0.45l-0.225,0l-1.8,-0.075l-1.05,-0.075l-0.525,0.45l-0.225,5.175l0.525,0.525l2.925,0.075l0.525,-0.225l0.225,-5.4Zm-2.625,0.525l0.375,-0.225l0.375,0l0.3,0.15l0.15,0.375l-0.225,0.45l-0.525,0.15l-0.3,-0.075l-0.225,-0.3l0.075,-0.525Zm1.5,3.975l-0.75,0.375l-1.05,-0.15l-0.525,-0.675l0.15,-1.05l0.375,-0.6l0.75,-0.075l0.975,0.225l0.375,0.9l-0.3,1.05Z" style="fill-rule:nonzero;"/><path d="M43.275,23.7l-0.45,0.075l-0.225,0.3l0,0.525l0.45,0.225l0.45,-0.075l0.225,-0.375l-0.075,-0.45l-0.375,-0.225Z" style="fill-rule:nonzero;"/></g><g><path d="M20.4,37.125l-0.15,-0.75l-0.3,-0.45l-0.3,-0.375l-0.75,-0.225l-0.75,0.225l-0.375,0.6l0.15,0.825l0.45,0.675l0.75,0.375l0.9,-0.15l0.375,-0.75Z" style="fill-rule:nonzero;"/><path d="M18.375,36.375l-4.425,1.35l-0.375,-0.525l0.675,-0.525l0.3,-1.125l0.675,-0.9l0.825,-0.15l0.675,0.375l-0.525,0.075l-0.375,0.525l-0.225,0.675l-0.075,0.45l3,-0.975l-0.15,0.75Z" style="fill-rule:nonzero;"/></g><g><path d="M24,0.975l0,0.825l0.225,0.45l0.3,0.375l0.675,0.375l0.75,-0.075l0.45,-0.525l0,-0.825l-0.375,-0.75l-0.675,-0.45l-0.9,0.075l-0.45,0.525Z" style="fill-rule:nonzero;"/><path d="M25.875,1.95l4.575,-0.6l0.3,0.525l-0.75,0.45l-0.45,1.05l-0.825,0.75l-0.825,0.075l-0.6,-0.45l0.525,-0.075l0.45,-0.45l0.3,-0.6l0.15,-0.45l-3.075,0.6l0.225,-0.825Z" style="fill-rule:nonzero;"/></g><path d="M6.375,11.4l0.375,-0.975l-0.825,-1.275l-1.35,0l-2.1,3.3l2.775,1.5l0.975,0l0.9,-0.9l-0.075,-1.275l-0.675,-0.375Z" style="fill-rule:nonzero;"/><path d="M36.75,38.925l-0.75,-1.125l-0.225,-0.15l-1.2,1.8l-0.375,-0.375l0.75,-1.875l-1.875,0.15l-1.2,1.5l0.15,1.65l1.125,1.2l1.65,0.225l1.425,-1.125l0.525,-1.875Z" style="fill-rule:nonzero;"/><path d="M16.5,44.475l4.125,-0.975l1.575,0.45l-0.375,1.35l0.525,0.15l1.2,-3.15l-0.675,-0.225l-0.45,1.2l-1.575,-0.375l-2.85,-3.15l-1.5,4.725Z" style="fill-rule:nonzero;"/><path d="M27,29.175l1.2,2.55l0.45,-0.15l0.45,0.225l0.075,0.6l-0.525,0.3l-0.375,-0.075l-0.225,-0.675l-2.1,-1.125l0.075,2.325l0.3,0.15l0.3,0.225l0,0.375l-0.6,0.375l-0.45,-0.375l-0.075,-0.45l0.225,-0.225l-1.275,-1.8l-1.125,1.875l0.15,0.3l0.075,0.375l-0.15,0.225l-0.3,0.15l-0.45,-0.225l-0.075,-0.3l0.075,-0.375l0.375,-0.15l-0.225,-2.775l4.2,-1.35Z" style="fill-rule:nonzero;"/><path d="M9.45,32.475l-0.6,2.775l0.375,0.6l0.3,0.075l-0.45,0.975l0.6,0.15l1.575,-0.75l1.35,0.225l0.675,-0.45l0.525,-2.325l-0.525,-0.75l-3.075,-0.675l-0.75,0.15Z" style="fill-rule:nonzero;"/><path d="M14.475,21.75l-1.35,0.375l0.45,1.95l-2.4,1.725l2.925,-0.225l0.6,2.1l1.65,-0.525l-1.875,-5.4Z" style="fill-rule:nonzero;"/><path d="M3.45,34.125l-1.425,-1.5l2.325,-0.225l-0.75,-0.975l2.55,0.225l-0.675,-0.975l3.9,0.15l-2.1,1.2l0.675,0.9l-2.4,0.15l0.375,0.9l-2.475,0.15Z" style="fill-rule:nonzero;"/><path d="M11.325,4.275l1.65,1.275l-2.325,0.525l0.9,0.825l-2.55,0.15l0.75,0.9l-3.825,0.375l1.875,-1.5l-0.75,-0.825l2.4,-0.525l-0.525,-0.75l2.4,-0.45Z" style="fill-rule:nonzero;"/><g><path d="M18,28.65l-0.225,0.675l-0.525,0.225l-0.825,-0.375l0.15,-0.825l0.375,-0.45l0.9,0.375" style="fill-rule:nonzero;"/><path d="M14.7,31.2l5.325,3.6l1.575,-4.5l-6.15,0.075l-0.75,0.825Z" style="fill-rule:nonzero;"/><path d="M18.15,31.65c-0.075,-0.075 -0.975,-2.55 -0.975,-2.55l0.525,-0.075l1.05,2.325l-0.6,0.3Z" style="fill-rule:nonzero;"/></g><g><path d="M10.125,23.1l-0.525,-0.375l-0.6,-0.225l-0.75,0.225l1.125,-4.575l0.45,-0.225l0.525,0.075l0.375,0.375l-0.6,4.725Z" style="fill-rule:nonzero;"/><path d="M10.5,25.275l-0.45,-0.6l-1.125,-0.6l-1.05,-0.075l-0.675,0.375l0.225,-0.6c0,0 0.45,-0.375 0.525,-0.45c0.075,-0.075 0.9,-0.3 0.9,-0.3l0.825,0.225l0.6,0.45l0.375,0.75l-0.15,0.825Z" style="fill-rule:nonzero;"/><path d="M10.275,25.65l-0.525,-0.525l-1.275,-0.525l-0.9,0.075l-0.525,0.225l0.225,0.825l0.6,0.6l1.05,0.3l0.825,-0.3l0.3,-0.3l0.225,-0.375Z" style="fill-rule:nonzero;"/></g><path d="M13.95,27.75l-1.125,-0.9l-0.9,-0.15l-0.75,0.075l-1.125,0.825l-0.525,1.425l0.3,1.425l1.2,0.9l1.35,0.15l1.275,-0.6l0.75,-1.65l-0.45,-1.5Zm-0.825,1.35l-1.875,0.975l0,-2.025l1.875,1.05Z" style="fill-rule:nonzero;"/><path d="M17.1,40.725l-2.7,-2.325l-2.475,2.175l-0.075,-0.225l-0.3,-0.3l-0.3,-0.15l-0.6,0l-0.525,0.3l-0.15,0.525l0.225,0.6l0.75,0.45l0.45,-0.075l0.525,-0.375l1.95,-1.8l2.025,1.725l-1.425,1.125l-0.3,-0.45l-0.525,-0.375l-0.6,-0.075l-0.525,0.375l-0.075,0.6l0.3,0.525l0.3,0.225l0.3,0.15l0.6,-0.075l0.15,-0.075l3,-2.475Z" style="fill-rule:nonzero;"/><path d="M4.275,15.525l0.525,0.225l0.075,0.375l-0.375,0.525l-2.775,-1.2l-0.075,-0.45l0.375,-0.525l0.45,0.225l0.075,-0.45l0.6,-0.225l1.275,0.525l0.15,0.3l0.75,0.525l0.525,0.525l0.45,0.6l0.225,0.975l-0.3,0.975l-0.45,0.675l-0.675,0.525l-1.05,0.15l-0.9,0.075l-0.6,-0.15l-0.45,0.15l-1.275,-0.6l-0.3,-0.375l0.375,-0.45c0,0 -0.525,-0.15 -0.525,-0.225c0,-0.075 0.075,-0.6 0.075,-0.6l0.375,-0.375l2.85,1.2l0.075,0.525l-0.375,0.3l-0.675,-0.15l-0.075,0.225l0.675,0.225l0.75,0l0.3,-0.3l0.675,-0.3l0.45,-0.6l0.225,-0.75l-0.075,-0.525l-0.225,-0.6l0,-0.6l-0.225,-0.225l-0.75,-0.45l-0.15,0.3Z" style="fill-rule:nonzero;"/><path d="M6.375,34.8l1.275,1.275l-0.525,1.65l1.575,-0.375l1.2,1.275l-1.275,1.875l-4.05,-4.125l1.8,-1.575Z" style="fill-rule:nonzero;"/><g><path d="M8.325,21.45l-1.125,0.825l-1.875,0.975l-0.15,-1.95l2.7,0l0.45,0.15Z" style="fill-rule:nonzero;"/><path d="M4.35,21.3l-1.65,0l0,3.45l1.725,-1.125l-0.075,-2.325Z" style="fill-rule:nonzero;"/><path d="M1.8,21.375l-0.075,3.75l-1.2,0.675l-0.525,-0.3l0,-0.975l0.075,-3.225l1.725,0.075Z" style="fill-rule:nonzero;"/></g><path d="M38.625,33.75l-0.6,0l-0.825,1.35l-0.525,-0.075l-0.6,-1.8l-0.75,1.2l-0.675,-0.075l-0.3,-2.625l-1.425,4.65l-0.6,-0.075l-0.525,-3.3l-0.45,0.525l-0.975,0l0,-0.9l0.9,-0.225l0.375,-1.725l0.675,0.075l0.45,3.15l1.35,-4.05l0.75,0l0.225,3.15l0.75,-1.425l0.675,0.075l0.525,2.1l0.525,-0.825l1.125,0.15l-0.075,0.675Z" style="fill-rule:nonzero;"/><g><path d="M30.525,39.45l-0.675,-0.3l-4.2,2.325l-0.375,0.675l-1.125,0.6l0.825,1.95l1.2,-0.525l0.675,0.075l4.65,-1.8l0,-0.825l-0.975,-2.175Zm-1.425,0.6l0.15,-0.075l0.225,0.075l0.075,0.15l0.075,0.225l-0.075,0.225l-0.15,0.075l-0.225,0l-0.225,-0.15l-0.075,-0.075l0,-0.15l0.075,-0.15l0.15,-0.15Zm-1.05,0.675l0.225,0.075l0.15,0.15l0.075,0.225l-0.075,0.15l-0.225,0.15l-0.225,-0.075l-0.15,-0.075l-0.075,-0.15l0.075,-0.15l0.15,-0.15l0.075,-0.15Zm-1.275,1.425l-0.225,-0.15l-0.075,-0.15l0,-0.15l0.075,-0.15l0.15,-0.075l0.15,-0.075l0.3,0.075l0.075,0.15l0.075,0.225l-0.15,0.075l-0.15,0.15l-0.225,0.075Zm0.6,1.35l-0.15,-0.075l-0.075,-0.15l0.075,-0.15l0.15,-0.15l0.225,-0.075l0.225,0.075l0.15,0.15l0.075,0.225l-0.075,0.15l-0.15,0.15l-0.45,-0.15Zm1.425,-0.45l-0.225,0l-0.075,-0.15l0,-0.225l0.075,-0.15l0.15,-0.075l0.225,-0.075l0.15,0l0.15,0.15l0.075,0.225l0,0.15l-0.3,0.075l-0.225,0.075Zm1.65,-0.675l-0.15,0.15l-0.225,0.075l-0.225,0l-0.075,-0.15l0,-0.225l0.075,-0.15l0.15,-0.075l0.225,-0.075l0.15,0l0.15,0.15l0.075,0.225l-0.15,0.075Z" style="fill-rule:nonzero;"/><path d="M30.825,43.8l0.525,-0.3l-0.225,-0.375l-0.975,0.3l0.15,0.375l0.525,0Z" style="fill-rule:nonzero;"/><path d="M29.775,43.575l-0.975,0.375l0.15,0.3l0.6,0.075l0.45,-0.375l-0.225,-0.375Z" style="fill-rule:nonzero;"/><path d="M28.425,44.1l-0.9,0.375l0.15,0.3l0.525,0l0.45,-0.3l-0.225,-0.375Z" style="fill-rule:nonzero;"/><path d="M26.775,40.5l-0.15,-0.375l-0.675,0.15l-0.3,0.375l0.225,0.3c0,0 0.825,-0.45 0.9,-0.45Z" style="fill-rule:nonzero;"/><path d="M27.15,40.275l0.825,-0.525l-0.225,-0.375l-0.45,0l-0.375,0.45l0.225,0.45Z" style="fill-rule:nonzero;"/><path d="M28.35,39.525l0.9,-0.525l-0.15,-0.375l-0.6,0.075l-0.375,0.375l0.225,0.45Z" style="fill-rule:nonzero;"/></g><path d="M23.925,35.475l1.125,0.9l0.675,1.2l-0.075,1.425l-0.675,1.125l-0.825,0.75l-1.575,0.3l-1.125,-0.525l-0.825,-0.9l-0.15,-1.125l0.45,-0.75l1.05,-1.05l1.575,0.075l0.975,1.2l-0.225,1.05l-0.825,0.675l-0.9,0.075l-0.75,-0.6l0.075,-0.675l0.6,-0.675l0.525,0.225l0,0.3l-0.375,-0.075l-0.225,0.45l0.075,0.225l0.375,0.15l0.375,-0.075l0.525,-0.9l-0.525,-0.675l-0.9,-0.15l-1.2,1.05l0.3,1.35l1.35,0.75l1.125,-0.375l0.975,-0.825l0.075,-1.5l-1.35,-1.8l-1.2,0l-0.225,-0.6l0.6,-0.075l1.125,0.075Z" style="fill-rule:nonzero;"/><path d="M26.625,37.65l0.075,-1.5l0.6,-1.5l0.9,-0.825l0.975,0l0.675,0.3l0.825,1.05l0.15,0.825l-0.15,0.825l-1.575,0.825l-1.275,0.15l-1.2,-0.15Z" style="fill-rule:nonzero;"/><g><path d="M6.9,29.25l0.3,-0.45l-0.075,-0.225l-0.45,-1.725l-0.3,-1.05l-0.6,-0.3l-4.875,1.275l-0.375,0.6l0.75,2.85l0.375,0.45l5.25,-1.425Zm-1.275,-2.325l0.3,0.3l0.075,0.375l-0.075,0.375l-0.375,0.225l-0.45,-0.075l-0.3,-0.45l0,-0.3l0.225,-0.3l0.6,-0.15Zm-3.3,2.625l-0.6,-0.6l-0.15,-1.05l0.525,-0.75l1.05,-0.225l0.675,0.225l0.3,0.675l0.075,0.975l-0.75,0.675l-1.125,0.075Z" style="fill-rule:nonzero;"/><path d="M3.525,28.275l-0.15,-0.45l-0.375,-0.15l-0.525,0.15l-0.075,0.525l0.225,0.45l0.45,0.075l0.375,-0.225l0.075,-0.375Z" style="fill-rule:nonzero;"/></g></g></svg>